<?xml version="1.0" encoding="UTF-8" standalone="no"?>
<!-- Created with Inkscape (http://www.inkscape.org/) -->

<svg
   xmlns:dc="http://purl.org/dc/elements/1.1/"
   xmlns:cc="http://creativecommons.org/ns#"
   xmlns:rdf="http://www.w3.org/1999/02/22-rdf-syntax-ns#"
   xmlns:svg="http://www.w3.org/2000/svg"
   xmlns="http://www.w3.org/2000/svg"
   xmlns:sodipodi="http://sodipodi.sourceforge.net/DTD/sodipodi-0.dtd"
   xmlns:inkscape="http://www.inkscape.org/namespaces/inkscape"
   width="1000"
   height="1000"
   id="svg3613"
   version="1.1"
   inkscape:version="0.48.2 r9819"
   sodipodi:docname="dashbox.svg">
  <defs
     id="defs5498" />
  <sodipodi:namedview
     inkscape:window-height="856"
     inkscape:window-width="1436"
     inkscape:pageshadow="2"
     inkscape:pageopacity="0.0"
     borderopacity="1.0"
     bordercolor="#666666"
     pagecolor="#ffffff"
     id="base"
     showgrid="false"
     showguides="true"
     inkscape:guide-bbox="true"
     inkscape:zoom="0.454"
     inkscape:cx="110.13216"
     inkscape:cy="500"
     inkscape:window-x="4"
     inkscape:window-y="0"
     inkscape:current-layer="layer1"
     inkscape:window-maximized="1">
    <sodipodi:guide
       orientation="horizontal"
       position="200"
       id="guide5596" />
  </sodipodi:namedview>
  <metadata
     id="metadata5594">
    <rdf:RDF>
      <cc:Work
         rdf:about="">
        <dc:format>image/svg+xml</dc:format>
        <dc:type
           rdf:resource="http://purl.org/dc/dcmitype/StillImage" />
        <dc:title></dc:title>
      </cc:Work>
    </rdf:RDF>
  </metadata>
  <g
     inkscape:label="Layer 1"
     inkscape:groupmode="layer"
     id="layer1">
    <path
       sodipodi:type="spiral"
       style="fill:none;stroke:#000000;stroke-width:40.70000076;stroke-linecap:butt;stroke-linejoin:miter;stroke-miterlimit:4;stroke-opacity:1;stroke-dasharray:none"
       id="path4609"
       sodipodi:cx="607.9295"
       sodipodi:cy="447.13657"
       sodipodi:expansion="1"
       sodipodi:revolution="3"
       sodipodi:radius="218.23959"
       sodipodi:argument="-20.460733"
       sodipodi:t0="0"
       d="m 607.9295,447.13657 c -0.44173,-10.93327 14.51989,-5.98955 18.17181,-0.7342 9.89648,14.24166 -2.80539,32.02746 -16.70341,37.07781 -24.8603,9.0339 -49.91761,-10.33275 -55.98382,-34.14102 -8.9024,-34.93959 17.8843,-68.12233 51.57863,-74.88982 44.90925,-9.02001 86.44814,25.43421 93.79583,69.01624 9.24631,54.84353 -32.98086,104.83396 -86.45385,112.70183 -64.76296,9.52904 -123.25405,-40.52516 -131.60783,-103.89146 -9.84465,-74.67499 48.06792,-141.69557 121.32906,-150.51384 84.58289,-10.18104 160.1514,55.60966 169.41985,138.76668 10.5314,94.48828 -63.15071,178.61724 -156.20429,188.32585 C 510.87943,639.74622 418.18109,558.16338 408.03963,455.21274 396.78068,340.91802 486.27108,239.64373 599.11913,229.07488"
       transform="matrix(1.2795417,0,0,1.2219004,-247.46751,-109.61304)" />
  </g>
</svg>
